# Blender v2.79 (sub 0) OBJ File: ''
# www.blender.org
mtllib lapa.mtl
v 0.100000 -1.000000 1.000000
v 0.100000 1.000000 1.000000
v 0.100000 -1.000000 -1.000000
v 0.100000 1.000000 -1.000000
v 1.000000 -1.000000 1.000000
v 1.000000 1.000000 1.000000
v 1.000000 -1.000000 -1.000000
v 1.000000 1.000000 -1.000000
v -0.200000 0.000000 1.000000
v -0.200000 0.000000 -1.000000
v 0.500000 0.000000 -1.000000
v 0.500000 0.000000 1.000000
vn -0.9578 0.2873 0.0000
vn 0.0000 0.0000 -1.0000
vn 0.8944 -0.4472 0.0000
vn 0.0000 0.0000 1.0000
vn 0.0000 -1.0000 0.0000
vn 0.0000 1.0000 0.0000
vn 0.8944 0.4472 0.0000
vn -0.9578 -0.2873 0.0000
usemtl None
s off
f 9//1 2//1 4//1 10//1
f 10//2 4//2 8//2 11//2
f 11//3 8//3 6//3 12//3
f 12//4 6//4 2//4 9//4
f 3//5 7//5 5//5 1//5
f 8//6 4//6 2//6 6//6
f 5//4 12//4 9//4 1//4
f 7//7 11//7 12//7 5//7
f 3//2 10//2 11//2 7//2
f 1//8 9//8 10//8 3//8
